<svg width="26" height="25" viewBox="0 0 26 25" fill="none" xmlns="http://www.w3.org/2000/svg">
<g clip-path="url(#clip0_1_1263)">
<path opacity="0.3" d="M22.5094 12.4286V10.3571H12.8625L14.2988 4.82642L9.64687 9.32142V19.6786H19.2937L22.5094 12.4286Z" fill="black"/>
<path d="M9.64687 21.75H19.2937C20.1834 21.75 20.9444 21.2321 21.266 20.4864L24.5031 13.1846C24.5995 12.9464 24.6531 12.6978 24.6531 12.4286V10.3571C24.6531 9.21785 23.6884 8.28571 22.5094 8.28571H15.7458L16.7641 3.55249L16.7963 3.22106C16.7963 2.79642 16.6141 2.40285 16.3247 2.12321L15.1885 1.03571L8.12481 7.86106C7.73894 8.23392 7.50312 8.75178 7.50312 9.32142V19.6786C7.50312 20.8179 8.46781 21.75 9.64687 21.75ZM9.64687 9.32142L14.2988 4.82642L12.8625 10.3571H22.5094V12.4286L19.2937 19.6786H9.64687V9.32142ZM1.07188 9.32142H5.35938V21.75H1.07188V9.32142Z" fill="black"/>
</g>
<defs>
<clipPath id="clip0_1_1263">
<rect width="25.725" height="24.8571" fill="white"/>
</clipPath>
</defs>
</svg>
